<svg width="72" height="70" viewBox="0 0 72 70" fill="none" xmlns="http://www.w3.org/2000/svg">
<path fill-rule="evenodd" clip-rule="evenodd" d="M47.5754 58.6477C47.5754 64.9174 42.3605 70 35.9274 70C29.4946 70 24.2798 64.9176 24.2793 58.6485L24.2576 54.2424C24.2576 50.0111 27.7771 46.5802 32.1186 46.5802C33.496 46.5802 34.7907 46.9254 35.9165 47.532C37.0423 46.9254 38.337 46.5802 39.7144 46.5802C44.0559 46.5802 47.5754 50.0103 47.5754 54.2416V58.6477ZM24.9872 54.2407C24.9877 50.4025 28.1803 47.2912 32.1186 47.2912C33.2212 47.2912 34.2653 47.5351 35.1974 47.9705C33.1749 49.3567 31.8534 51.6488 31.8534 54.2416V58.6477C31.8534 60.8294 33.6681 62.5981 35.9068 62.5981C35.9102 62.5981 35.9137 62.5981 35.9171 62.5981C35.9202 62.5981 35.9232 62.5981 35.9262 62.5981C38.1648 62.5981 39.9796 60.8294 39.9796 58.6477V54.2416C39.9796 51.6488 38.6581 49.3567 36.6356 47.9705C37.5677 47.5351 38.6118 47.2912 39.7144 47.2912C43.653 47.2912 46.8458 50.403 46.8458 54.2416V58.6477C46.8458 64.5247 41.9576 69.2889 35.9274 69.2889C29.8972 69.2889 25.0089 64.5245 25.0089 58.6477L24.9872 54.2407ZM35.9165 48.3577C33.9136 49.5883 32.583 51.7635 32.583 54.2416V58.6477H32.6024C32.6024 60.4336 34.0853 61.882 35.9165 61.8871C37.7477 61.882 39.2306 60.4336 39.2306 58.6477H39.25V54.2416C39.25 51.7635 37.9194 49.5883 35.9165 48.3577Z" fill="white"/>
<path fill-rule="evenodd" clip-rule="evenodd" d="M59.6969 23.1672C65.9394 23.1672 70.9998 28.405 70.9998 34.8662C70.9998 41.3272 65.9395 46.5648 59.6977 46.5652L55.3109 46.5871C51.098 46.5871 47.6819 43.0522 47.6819 38.6917C47.6819 37.3082 48.0257 36.0078 48.6297 34.877C48.0258 33.7463 47.682 32.4459 47.682 31.0624C47.682 26.7019 51.0972 23.1671 55.31 23.1671L59.6969 23.1672ZM55.3092 45.8543C51.4877 45.8538 48.3899 42.6472 48.3899 38.6917C48.3899 37.5842 48.6327 36.5354 49.0663 35.5993C50.4465 37.6305 52.7285 38.9578 55.31 38.9578H59.6969C61.8692 38.9578 63.6302 37.1351 63.6302 34.8867C63.6302 34.882 63.6302 34.8773 63.6302 34.8726C63.6302 34.8709 63.6302 34.8691 63.6302 34.8674C63.6302 32.619 61.8692 30.7963 59.6969 30.7963H55.31C52.7285 30.7963 50.4465 32.1236 49.0663 34.1548C48.6327 33.2186 48.3899 32.1699 48.3899 31.0624C48.3899 27.1066 51.4882 23.8998 55.31 23.8998H59.6969C65.5484 23.8998 70.2918 28.8097 70.2918 34.8662C70.2918 40.9228 65.5481 45.8325 59.6969 45.8325L55.3092 45.8543ZM49.4519 34.877C50.6771 36.8887 52.8428 38.2251 55.31 38.2251H59.6969V38.2057C61.4762 38.2057 62.919 36.7144 62.9222 34.8734C62.9153 33.0358 61.4739 31.5484 59.6969 31.5484V31.529C59.6969 31.529 59.6969 31.529 59.6969 31.529H55.31C52.8428 31.529 50.6771 32.8654 49.4519 34.877Z" fill="white"/>
<path fill-rule="evenodd" clip-rule="evenodd" d="M22.9336 35.4856C23.3672 36.4217 23.6101 37.4705 23.6101 38.578C23.6101 42.5339 20.5119 45.7407 16.69 45.7407H12.3031V46.4734H16.69C20.9028 46.4734 24.318 42.9385 24.318 38.578C24.318 37.1945 23.9742 35.894 23.3702 34.7633C23.974 33.6326 24.3177 32.3324 24.3177 30.9491C24.3177 26.5886 20.9025 23.0537 16.6897 23.0537L12.3028 23.0755C6.06107 23.076 1 28.3136 1 34.7745C1 41.2358 6.0607 46.4734 12.3031 46.4734V45.7407C6.45169 45.7407 1.70795 40.8311 1.70795 34.7745C1.70795 28.718 6.45166 23.8083 12.3028 23.8083L16.6897 23.7865C20.5112 23.7869 23.6098 26.9936 23.6098 30.9491C23.6098 32.0564 23.367 33.105 22.9336 34.041C21.5533 32.0099 19.2714 30.6826 16.69 30.6826H12.3031C10.1494 30.6826 8.4 32.4743 8.37028 34.6963C8.36982 34.7219 8.36959 34.7476 8.36959 34.7734C8.36959 37.0218 10.1306 38.8445 12.3028 38.8445H16.6897C19.2713 38.8445 21.5534 37.517 22.9336 35.4856ZM22.548 34.7633C21.3228 32.7518 19.1572 31.4154 16.69 31.4154H12.3031C12.303 31.4154 12.3033 31.4154 12.3031 31.4154L12.3028 31.435C10.5426 31.435 9.11172 32.8945 9.07814 34.7081C9.07794 34.7233 9.07784 34.7385 9.07784 34.7538C9.07784 36.5975 10.5219 38.0921 12.3031 38.0921V38.1117H16.6897C19.1571 38.1117 21.3228 36.7751 22.548 34.7633Z" fill="white"/>
<path fill-rule="evenodd" clip-rule="evenodd" d="M24.371 11.3523C24.371 5.08256 29.5859 7.47918e-07 36.0191 0C42.4519 -7.47884e-07 47.6666 5.08238 47.6671 11.3515L47.6888 15.7576C47.6888 19.9889 44.1693 23.4198 39.8278 23.4198C38.4504 23.4198 37.1557 23.0746 36.0299 22.468C34.9041 23.0746 33.6094 23.4198 32.232 23.4198C27.8905 23.4198 24.371 19.9897 24.371 15.7584L24.371 11.3523ZM46.9593 15.7593C46.9588 19.5975 43.7661 22.7088 39.8278 22.7088C38.7252 22.7088 37.6811 22.4649 36.749 22.0295C38.7715 20.6432 40.093 18.3512 40.093 15.7584V11.3523C40.093 9.17055 38.2782 7.40186 36.0396 7.40186C36.0361 7.40186 36.0325 7.40187 36.029 7.40187C36.0261 7.40187 36.0231 7.40187 36.0202 7.40187C33.7816 7.40187 31.9668 9.17056 31.9668 11.3523V15.7584C31.9668 18.3512 33.2884 20.6432 35.3108 22.0295C34.3787 22.4649 33.3346 22.7088 32.232 22.7088C28.2934 22.7088 25.1006 19.597 25.1006 15.7584V11.3523C25.1006 5.47526 29.9889 0.711049 36.0191 0.711049C42.0492 0.711048 46.9375 5.47553 46.9375 11.3523L46.9593 15.7593ZM36.0299 21.6422C38.0328 20.4116 39.3634 18.2365 39.3634 15.7584V11.3523L39.344 11.3523C39.344 9.56641 37.8611 8.11802 36.0299 8.11293C34.1987 8.11802 32.7158 9.56641 32.7158 11.3523L32.6964 11.3523V15.7584C32.6964 18.2365 34.027 20.4116 36.0299 21.6422Z" fill="white"/>
<path d="M59.6969 31.529V31.5484C61.4739 31.5484 62.9153 33.0358 62.9222 34.8734C62.919 36.7144 61.4762 38.2057 59.6969 38.2057V38.2251H55.31C52.8428 38.2251 50.6771 36.8887 49.4519 34.877C50.6771 32.8654 52.8428 31.529 55.31 31.529H59.6969ZM59.6969 31.529C59.6969 31.529 59.6969 31.529 59.6969 31.529ZM12.3031 45.7407H16.69C20.5119 45.7407 23.6101 42.5339 23.6101 38.578C23.6101 37.4705 23.3672 36.4217 22.9336 35.4856C21.5534 37.517 19.2713 38.8445 16.6897 38.8445H12.3028C10.1306 38.8445 8.36959 37.0218 8.36959 34.7734C8.36959 34.7476 8.36982 34.7219 8.37028 34.6963C8.4 32.4744 10.1494 30.6826 12.3031 30.6826H16.69C19.2714 30.6826 21.5533 32.0099 22.9336 34.041C23.367 33.105 23.6098 32.0564 23.6098 30.9491C23.6098 26.9936 20.5112 23.7869 16.6897 23.7865L12.3028 23.8083C6.45166 23.8083 1.70795 28.718 1.70795 34.7745C1.70795 40.8311 6.45169 45.7407 12.3031 45.7407ZM12.3031 45.7407V46.4734M12.3031 46.4734H16.69C20.9028 46.4734 24.318 42.9386 24.318 38.578C24.318 37.1945 23.9742 35.894 23.3702 34.7633C23.974 33.6326 24.3177 32.3324 24.3177 30.9491C24.3177 26.5886 20.9025 23.0537 16.6897 23.0537L12.3028 23.0755C6.06107 23.076 1 28.3136 1 34.7745C1 41.2358 6.0607 46.4734 12.3031 46.4734ZM12.3031 31.4154H16.69C19.1572 31.4154 21.3228 32.7518 22.548 34.7633C21.3228 36.7751 19.1571 38.1117 16.6897 38.1117H12.3031V38.0921C10.5219 38.0921 9.07784 36.5975 9.07784 34.7538C9.07784 34.7385 9.07794 34.7233 9.07814 34.7081C9.11172 32.8945 10.5426 31.435 12.3028 31.435L12.3031 31.4154ZM12.3031 31.4154C12.303 31.4154 12.3033 31.4154 12.3031 31.4154ZM24.9872 54.2407C24.9877 50.4025 28.1803 47.2912 32.1186 47.2912C33.2212 47.2912 34.2653 47.5351 35.1974 47.9705C33.1749 49.3567 31.8534 51.6488 31.8534 54.2416V58.6477C31.8534 60.8294 33.6681 62.5981 35.9068 62.5981C35.9102 62.5981 35.9137 62.5981 35.9171 62.5981C35.9202 62.5981 35.9232 62.5981 35.9262 62.5981C38.1648 62.5981 39.9796 60.8294 39.9796 58.6477V54.2416C39.9796 51.6487 38.6581 49.3567 36.6356 47.9705C37.5677 47.5351 38.6118 47.2912 39.7144 47.2912C43.653 47.2912 46.8458 50.403 46.8458 54.2416V58.6477C46.8458 64.5247 41.9576 69.289 35.9274 69.289C29.8972 69.289 25.0089 64.5245 25.0089 58.6477L24.9872 54.2407ZM47.5754 58.6477C47.5754 64.9174 42.3605 70 35.9274 70C29.4946 70 24.2798 64.9176 24.2793 58.6485L24.2576 54.2424C24.2576 50.0111 27.7771 46.5802 32.1186 46.5802C33.496 46.5802 34.7907 46.9254 35.9165 47.532C37.0423 46.9254 38.337 46.5802 39.7144 46.5802C44.0559 46.5802 47.5754 50.0103 47.5754 54.2416V58.6477ZM35.9165 48.3577C33.9136 49.5883 32.583 51.7635 32.583 54.2416V58.6477H32.6024C32.6024 60.4336 34.0853 61.882 35.9165 61.8871C37.7477 61.882 39.2306 60.4336 39.2306 58.6477H39.25V54.2416C39.25 51.7635 37.9194 49.5883 35.9165 48.3577ZM55.3092 45.8543C51.4877 45.8538 48.3899 42.6472 48.3899 38.6917C48.3899 37.5842 48.6327 36.5354 49.0663 35.5993C50.4465 37.6305 52.7285 38.9578 55.31 38.9578H59.6969C61.8692 38.9578 63.6302 37.1351 63.6302 34.8867C63.6302 34.882 63.6302 34.8773 63.6302 34.8726C63.6302 34.8709 63.6302 34.8691 63.6302 34.8674C63.6302 32.619 61.8692 30.7963 59.6969 30.7963H55.31C52.7285 30.7963 50.4465 32.1236 49.0663 34.1548C48.6327 33.2186 48.3899 32.1699 48.3899 31.0624C48.3899 27.1066 51.4882 23.8998 55.31 23.8998H59.6969C65.5484 23.8998 70.2918 28.8097 70.2918 34.8662C70.2918 40.9228 65.5481 45.8325 59.6969 45.8325L55.3092 45.8543ZM59.6969 23.1672C65.9394 23.1672 70.9998 28.405 70.9998 34.8662C70.9998 41.3272 65.9395 46.5648 59.6977 46.5652L55.3109 46.5871C51.098 46.5871 47.6819 43.0522 47.6819 38.6917C47.6819 37.3082 48.0257 36.0078 48.6297 34.877C48.0258 33.7463 47.682 32.4459 47.682 31.0624C47.682 26.7019 51.0972 23.1671 55.31 23.1671L59.6969 23.1672ZM46.9593 15.7593C46.9588 19.5975 43.7661 22.7088 39.8278 22.7088C38.7252 22.7088 37.6811 22.4649 36.749 22.0295C38.7714 20.6432 40.093 18.3512 40.093 15.7584V11.3523C40.093 9.17055 38.2782 7.40186 36.0396 7.40186C36.0361 7.40186 36.0325 7.40187 36.029 7.40187C36.0261 7.40187 36.0231 7.40187 36.0202 7.40187C33.7816 7.40187 31.9668 9.17056 31.9668 11.3523V15.7584C31.9668 18.3512 33.2884 20.6432 35.3108 22.0295C34.3787 22.4649 33.3346 22.7088 32.232 22.7088C28.2934 22.7088 25.1006 19.597 25.1006 15.7584V11.3523C25.1006 5.47526 29.9889 0.711049 36.0191 0.711049C42.0492 0.711048 46.9375 5.47553 46.9375 11.3523L46.9593 15.7593ZM24.371 11.3523C24.371 5.08256 29.5859 7.47918e-07 36.0191 0C42.4519 -7.47884e-07 47.6666 5.08238 47.6671 11.3515L47.6888 15.7576C47.6888 19.9889 44.1693 23.4198 39.8278 23.4198C38.4504 23.4198 37.1557 23.0746 36.0299 22.468C34.9041 23.0746 33.6094 23.4198 32.232 23.4198C27.8905 23.4198 24.371 19.9897 24.371 15.7584L24.371 11.3523ZM36.0299 21.6422C38.0328 20.4116 39.3634 18.2365 39.3634 15.7584V11.3523L39.344 11.3523C39.344 9.56641 37.8611 8.11802 36.0299 8.11293C34.1987 8.11802 32.7158 9.56641 32.7158 11.3523L32.6964 11.3523V15.7584C32.6964 18.2365 34.027 20.4116 36.0299 21.6422Z" stroke="white" stroke-width="2" stroke-miterlimit="10"/>
</svg>
