<svg width="215" height="44" viewBox="0 0 215 44" fill="none" xmlns="http://www.w3.org/2000/svg">
<path d="M60.3386 15.9402C61.2019 14.5584 62.3806 13.4817 63.8746 12.7102C65.3687 11.9388 67.0439 11.553 68.9004 11.553C71.0722 11.553 72.9747 12.0618 74.6082 13.0789C76.2413 14.0965 77.383 15.5037 78.0331 17.301H73.5504C73.1051 16.4534 72.4786 15.8176 71.6709 15.3933C70.8632 14.9695 69.9305 14.7576 68.8726 14.7576C67.7399 14.7576 66.7328 14.9993 65.8514 15.4827C64.9694 15.9661 64.2825 16.6487 63.7907 17.53C63.2984 18.4119 63.053 19.4465 63.053 20.6331C63.053 21.8196 63.2989 22.8332 63.7907 23.7234C64.2825 24.6135 64.9694 25.3005 65.8514 25.7834C66.7328 26.2668 67.7399 26.5085 68.8726 26.5085C69.9305 26.5085 70.8632 26.2922 71.6709 25.8601C72.4786 25.4275 73.1051 24.7878 73.5504 23.9397H78.0331C77.383 25.7541 76.2461 27.1658 74.6221 28.1745C72.9977 29.1833 71.0904 29.6877 68.9004 29.6877C67.0439 29.6877 65.3687 29.3025 63.8746 28.5305C62.38 27.759 61.2014 26.6868 60.3386 25.3132C59.4753 23.9397 59.044 22.3801 59.044 20.6335C59.044 18.887 59.4753 17.323 60.3386 15.9407V15.9402Z" fill="black"/>
<path d="M84.2142 28.8609C83.0259 28.2593 82.0932 27.4073 81.4159 26.3048C80.7381 25.2027 80.3997 23.9312 80.3997 22.4898C80.3997 21.0484 80.7477 19.777 81.4437 18.6749C82.1397 17.5729 83.0906 16.7208 84.2976 16.1188C85.5041 15.5172 86.8495 15.2159 88.335 15.2159C89.8205 15.2159 91.1654 15.5172 92.3724 16.1188C93.5789 16.7208 94.5304 17.5729 95.2263 18.6749C95.9223 19.7774 96.2703 21.0489 96.2703 22.4898C96.2703 23.9307 95.9127 25.2027 95.198 26.3048C94.4833 27.4073 93.5179 28.2593 92.3024 28.8609C91.0863 29.463 89.727 29.7637 88.2233 29.7637C86.7196 29.7637 85.4014 29.463 84.2137 28.8609H84.2142ZM90.2145 26.1905C90.8361 25.877 91.3327 25.4063 91.7042 24.7789C92.0752 24.1519 92.2612 23.3888 92.2612 22.4898C92.2612 21.1505 91.8758 20.1207 91.1056 19.3995C90.3353 18.6788 89.3934 18.3185 88.2794 18.3185C87.1654 18.3185 86.2327 18.6788 85.4811 19.3995C84.7295 20.1202 84.3532 21.1505 84.3532 22.4898C84.3532 23.8292 84.7194 24.8595 85.4533 25.5802C86.1862 26.3009 87.1098 26.6612 88.2238 26.6612C88.9289 26.6612 89.5928 26.5045 90.2145 26.1905Z" fill="black"/>
<path d="M101.644 29.1407C100.642 28.7252 99.8479 28.1617 99.2631 27.4493C98.6783 26.7369 98.3581 25.9488 98.3026 25.0841H102.229C102.303 25.627 102.595 26.0758 103.106 26.4322C103.616 26.7882 104.252 26.9664 105.013 26.9664C105.774 26.9664 106.336 26.8306 106.754 26.5596C107.171 26.2887 107.38 25.941 107.38 25.5167C107.38 25.0587 107.125 24.7154 106.615 24.4864C106.104 24.2574 105.292 24.0074 104.178 23.7359C103.027 23.4815 102.085 23.2188 101.352 22.9474C100.619 22.6764 99.988 22.2608 99.4588 21.7013C98.9296 21.1417 98.665 20.3873 98.665 19.4376C98.665 18.6578 98.9109 17.9459 99.4026 17.3009C99.8944 16.6569 100.6 16.1481 101.519 15.775C102.438 15.4025 103.519 15.2155 104.762 15.2155C106.6 15.2155 108.067 15.6349 109.162 16.4742C110.257 17.3136 110.86 18.4454 110.972 19.8697H107.241C107.185 19.3102 106.93 18.8649 106.475 18.5343C106.02 18.2037 105.413 18.0382 104.651 18.0382C103.946 18.0382 103.403 18.1568 103.023 18.3941C102.642 18.6319 102.452 18.9625 102.452 19.3858C102.452 19.8609 102.711 20.2213 103.232 20.4669C103.751 20.713 104.558 20.963 105.654 21.2174C106.768 21.4718 107.687 21.735 108.411 22.006C109.135 22.2774 109.761 22.6969 110.29 23.2647C110.819 23.8331 111.093 24.5836 111.112 25.5157C111.112 26.3297 110.865 27.0587 110.374 27.7032C109.882 28.3477 109.177 28.8521 108.258 29.2164C107.339 29.5806 106.267 29.7632 105.042 29.7632C103.817 29.7632 102.647 29.5552 101.645 29.1402L101.644 29.1407Z" fill="black"/>
<path d="M120.634 15.3432C121.748 15.3432 122.783 15.5893 123.738 16.081C124.695 16.5731 125.423 17.2255 125.924 18.0394C126.444 17.1747 127.177 16.5092 128.124 16.0429C129.07 15.5766 130.147 15.3437 131.353 15.3437C132.3 15.3437 133.168 15.5136 133.957 15.8524C134.746 16.1918 135.391 16.6581 135.892 17.2514V15.5473H139.79V29.638H135.892V21.8553C135.892 20.7533 135.581 19.9096 134.959 19.3246C134.337 18.7396 133.488 18.4472 132.411 18.4472C131.353 18.4472 130.518 18.7396 129.905 19.3246C129.293 19.9096 128.986 20.7533 128.986 21.8553V29.638H125.089V21.8553C125.089 20.7533 124.778 19.9096 124.156 19.3246C123.534 18.7396 122.694 18.4472 121.636 18.4472C120.578 18.4472 119.743 18.7396 119.13 19.3246C118.517 19.9096 118.211 20.7533 118.211 21.8553V29.638H114.313V21.3719C114.313 19.473 114.894 17.9935 116.054 16.9335C117.214 15.8739 118.741 15.3437 120.634 15.3437L120.634 15.3432Z" fill="black"/>
<path d="M157.196 23.5582H145.919C146.012 24.5758 146.402 25.3726 147.089 25.9488C147.775 26.5255 148.62 26.8135 149.622 26.8135C151.071 26.8135 152.101 26.2457 152.713 25.1095H156.918C156.473 26.4664 155.618 27.5811 154.356 28.4542C153.094 29.3277 151.544 29.7642 149.706 29.7642C148.221 29.7642 146.889 29.4634 145.711 28.8614C144.532 28.2598 143.613 27.4078 142.954 26.3053C142.295 25.2032 141.966 23.9317 141.966 22.4903C141.966 21.0489 142.29 19.7521 142.94 18.6495C143.59 17.5475 144.499 16.6998 145.669 16.1061C146.839 15.5128 148.184 15.2159 149.706 15.2159C151.229 15.2159 152.486 15.5045 153.647 16.0807C154.806 16.6573 155.707 17.4757 156.348 18.5353C156.988 19.5953 157.308 20.8116 157.308 22.1851C157.308 22.6939 157.271 23.1515 157.197 23.5587L157.196 23.5582ZM153.27 21.1676C153.251 20.2521 152.889 19.5187 152.183 18.9674C151.478 18.4166 150.615 18.1407 149.594 18.1407C148.629 18.1407 147.816 18.4078 147.158 18.942C146.499 19.4762 146.095 20.2179 145.946 21.1676H153.27Z" fill="black"/>
<path d="M160.077 18.6498C160.699 17.5477 161.548 16.7001 162.625 16.1063C163.701 15.5131 164.898 15.2162 166.217 15.2162C167.219 15.2162 168.175 15.4159 169.084 15.8138C169.994 16.2123 170.718 16.7421 171.256 17.4037V10.7142H175.21V29.5355H171.256V27.45C170.774 28.1453 170.096 28.7049 169.223 29.1287C168.351 29.5525 167.339 29.7645 166.188 29.7645C164.889 29.7645 163.701 29.4593 162.625 28.8489C161.548 28.2386 160.699 27.3782 160.077 26.2674C159.455 25.1571 159.144 23.8812 159.144 22.4398C159.144 20.9984 159.455 19.7523 160.077 18.6502V18.6498ZM170.727 20.265C170.356 19.6463 169.854 19.1712 169.223 18.8407C168.592 18.5101 167.915 18.3446 167.191 18.3446C166.467 18.3446 165.799 18.5057 165.187 18.828C164.574 19.1502 164.077 19.6209 163.697 20.2396C163.316 20.8587 163.126 21.5921 163.126 22.4398C163.126 23.2874 163.316 24.0296 163.697 24.6654C164.077 25.3011 164.578 25.7889 165.2 26.1278C165.822 26.4671 166.486 26.6365 167.191 26.6365C167.897 26.6365 168.593 26.471 169.223 26.1405C169.854 25.8099 170.356 25.3353 170.727 24.7161C171.098 24.0975 171.284 23.3553 171.284 22.4906C171.284 21.6258 171.098 20.8841 170.727 20.265Z" fill="black"/>
<path d="M179.29 13.1681C178.835 12.7696 178.608 12.274 178.608 11.6803C178.608 11.0866 178.835 10.5909 179.29 10.1925C179.745 9.79407 180.315 9.59486 181.002 9.59486C181.69 9.59486 182.26 9.79456 182.715 10.1925C183.169 10.5909 183.397 11.087 183.397 11.6803C183.397 12.2736 183.169 12.7701 182.715 13.1681C182.26 13.5665 181.689 13.7657 181.002 13.7657C180.316 13.7657 179.745 13.5665 179.29 13.1681ZM182.924 15.4444V29.5352H179.026V15.4444H182.924Z" fill="black"/>
<path d="M195.898 29.5355L190.664 23.533V29.5355H186.766V10.7142H190.664V21.4222L195.843 15.4452H200.91L194.116 22.516L200.966 29.5359H195.898V29.5355Z" fill="black"/>
<path d="M205.532 29.1407C204.53 28.7252 203.736 28.1617 203.151 27.4493C202.566 26.7369 202.246 25.9488 202.191 25.0841H206.117C206.191 25.627 206.483 26.0758 206.994 26.4322C207.505 26.7882 208.14 26.9664 208.901 26.9664C209.662 26.9664 210.224 26.8306 210.642 26.5596C211.059 26.2887 211.268 25.941 211.268 25.5167C211.268 25.0587 211.013 24.7154 210.503 24.4864C209.992 24.2574 209.18 24.0074 208.066 23.7359C206.915 23.4815 205.973 23.2188 205.24 22.9474C204.507 22.6764 203.876 22.2608 203.347 21.7013C202.818 21.1417 202.553 20.3873 202.553 19.4376C202.553 18.6578 202.799 17.9459 203.291 17.3009C203.782 16.6569 204.488 16.1481 205.407 15.775C206.326 15.4025 207.407 15.2155 208.651 15.2155C210.488 15.2155 211.955 15.6349 213.05 16.4742C214.145 17.3136 214.748 18.4454 214.86 19.8697H211.129C211.073 19.3102 210.818 18.8649 210.363 18.5343C209.908 18.2037 209.301 18.0382 208.539 18.0382C207.834 18.0382 207.291 18.1568 206.911 18.3941C206.53 18.6319 206.34 18.9625 206.34 19.3858C206.34 19.8609 206.6 20.2213 207.12 20.4669C207.639 20.713 208.446 20.963 209.542 21.2174C210.656 21.4718 211.575 21.735 212.299 22.006C213.023 22.2774 213.649 22.6969 214.178 23.2647C214.707 23.8331 214.981 24.5836 215 25.5157C215 26.3297 214.753 27.0587 214.262 27.7032C213.77 28.3477 213.065 28.8521 212.146 29.2164C211.227 29.5806 210.155 29.7632 208.93 29.7632C207.705 29.7632 206.535 29.5552 205.533 29.1402L205.532 29.1407Z" fill="black"/>
<path d="M23.4497 44C20.2906 44 17.2247 43.4343 14.3366 42.3186C11.5486 41.2412 9.04551 39.6999 6.89648 37.7369C4.74745 35.7738 3.06007 33.4874 1.88066 30.9407C0.659723 28.304 0.0404673 25.5054 0.0399348 22.6211L0 15.0224C0 12.9951 0.435023 11.0277 1.29336 9.17412C2.12187 7.38473 3.30714 5.7787 4.81667 4.39981C6.32621 3.02091 8.08494 1.93823 10.0433 1.18142C12.0731 0.397374 14.2269 0 16.4462 0C18.6655 0 20.8194 0.397374 22.8486 1.18142C24.8075 1.93823 26.5657 3.02091 28.0753 4.39981C29.5848 5.7787 30.7701 7.38521 31.5986 9.17412C32.4569 11.0277 32.8919 12.9956 32.8919 15.0224V22.6158C32.8919 27.3731 28.6551 31.2432 23.4471 31.2432C18.239 31.2432 14.0022 27.3731 14.0022 22.6158H19.3269C19.3269 24.6911 21.175 26.3794 23.4471 26.3794C25.7191 26.3794 27.5673 24.6911 27.5673 22.6158V15.0224C27.5673 9.42072 22.5781 4.86333 16.4457 4.86333C10.3133 4.86333 5.32837 9.41732 5.32411 15.0156L5.36405 22.6153C5.36405 27.0277 7.24524 31.1766 10.661 34.2967C14.0768 37.4168 18.6187 39.1352 23.4492 39.1352C28.2797 39.1352 32.8216 37.4168 36.2374 34.2967C39.6532 31.1766 41.5344 27.0277 41.5344 22.6153H46.859C46.859 25.501 46.2397 28.3016 45.0183 30.9397C43.8389 33.4864 42.1515 35.7729 40.0025 37.7359C37.8534 39.6989 35.3503 41.2403 32.5623 42.3176C29.6748 43.4334 26.6083 43.999 23.4492 43.999L23.4497 44Z" fill="url(#paint0_linear_636_977)"/>
<path d="M41.535 0V3.95623C40.1432 2.78745 38.5591 1.85506 36.8158 1.18142C34.7866 0.397374 32.6328 0 30.4135 0C28.1942 0 26.0403 0.397374 24.0111 1.18142C22.0522 1.93823 20.294 3.02091 18.7844 4.39981C17.2749 5.7787 16.0896 7.38521 15.2611 9.17412C14.4028 11.0277 13.9678 12.9956 13.9678 15.0224V22.6158C13.9678 27.3731 18.2046 31.2432 23.4126 31.2432C23.4185 31.2432 23.4243 31.2432 23.4302 31.2432V26.3794C23.4243 26.3794 23.4185 26.3794 23.4126 26.3794C21.1406 26.3794 19.2924 24.6912 19.2924 22.6158V15.0224C19.2924 9.42072 24.2816 4.86333 30.414 4.86333C36.5464 4.86333 41.5356 9.42072 41.5356 15.0224V22.6158H46.8602V0H41.5356H41.535Z" fill="url(#paint1_linear_636_977)"/>
<g style="mix-blend-mode:color-burn" opacity="0.3">
<path d="M23.4497 44C20.2906 44 17.2247 43.4343 14.3366 42.3186C11.5486 41.2412 9.04551 39.6999 6.89648 37.7369C4.74745 35.7738 3.06007 33.4874 1.88066 30.9407C0.659723 28.304 0.0404673 25.5054 0.0399348 22.6211L0 15.0224C0 12.9951 0.435023 11.0277 1.29336 9.17412C2.12187 7.38473 3.30714 5.7787 4.81667 4.39981C6.32621 3.02091 8.08494 1.93823 10.0433 1.18142C12.0731 0.397374 14.2269 0 16.4462 0C18.6655 0 20.8194 0.397374 22.8486 1.18142C24.8075 1.93823 26.5657 3.02091 28.0753 4.39981C29.5848 5.7787 30.7701 7.38521 31.5986 9.17412C32.4569 11.0277 32.8919 12.9956 32.8919 15.0224V22.6158C32.8919 27.3731 28.6551 31.2432 23.4471 31.2432C18.239 31.2432 14.0022 27.3731 14.0022 22.6158H19.3269C19.3269 24.6911 21.175 26.3794 23.4471 26.3794C25.7191 26.3794 27.5673 24.6911 27.5673 22.6158V15.0224C27.5673 9.42072 22.5781 4.86333 16.4457 4.86333C10.3133 4.86333 5.32837 9.41732 5.32411 15.0156L5.36405 22.6153C5.36405 27.0277 7.24524 31.1766 10.661 34.2967C14.0768 37.4168 18.6187 39.1352 23.4492 39.1352C28.2797 39.1352 32.8216 37.4168 36.2374 34.2967C39.6532 31.1766 41.5344 27.0277 41.5344 22.6153H46.859C46.859 25.501 46.2397 28.3016 45.0183 30.9397C43.8389 33.4864 42.1515 35.7729 40.0025 37.7359C37.8534 39.6989 35.3503 41.2403 32.5623 42.3176C29.6748 43.4334 26.6083 43.999 23.4492 43.999L23.4497 44Z" fill="url(#paint2_linear_636_977)"/>
<path d="M41.535 0V3.95623C40.1432 2.78745 38.5591 1.85506 36.8158 1.18142C34.7866 0.397374 32.6328 0 30.4135 0C28.1942 0 26.0403 0.397374 24.0111 1.18142C22.0522 1.93823 20.294 3.02091 18.7844 4.39981C17.2749 5.7787 16.0896 7.38521 15.2611 9.17412C14.4028 11.0277 13.9678 12.9956 13.9678 15.0224V22.6158C13.9678 27.3731 18.2046 31.2432 23.4126 31.2432C23.4185 31.2432 23.4243 31.2432 23.4302 31.2432V26.3794C23.4243 26.3794 23.4185 26.3794 23.4126 26.3794C21.1406 26.3794 19.2924 24.6912 19.2924 22.6158V15.0224C19.2924 9.42072 24.2816 4.86333 30.414 4.86333C36.5464 4.86333 41.5356 9.42072 41.5356 15.0224V22.6158H46.8602V0H41.5356H41.535Z" fill="url(#paint3_linear_636_977)"/>
</g>
<defs>
<linearGradient id="paint0_linear_636_977" x1="-1.48771" y1="21.9373" x2="52.7288" y2="22.1273" gradientUnits="userSpaceOnUse">
<stop stop-color="#FFD473"/>
<stop offset="0.19" stop-color="#EDB897"/>
<stop offset="0.44" stop-color="#D998C3"/>
<stop offset="0.67" stop-color="#CB81E2"/>
<stop offset="0.87" stop-color="#C273F6"/>
<stop offset="1" stop-color="#BF6EFD"/>
</linearGradient>
<linearGradient id="paint1_linear_636_977" x1="46.5594" y1="15.9591" x2="8.80633" y2="14.6321" gradientUnits="userSpaceOnUse">
<stop stop-color="#FFD473"/>
<stop offset="1" stop-color="#BF6EFD"/>
</linearGradient>
<linearGradient id="paint2_linear_636_977" x1="-1.48771" y1="21.9373" x2="52.7288" y2="22.1273" gradientUnits="userSpaceOnUse">
<stop stop-color="#FFD473"/>
<stop offset="0.19" stop-color="#EDB897"/>
<stop offset="0.44" stop-color="#D998C3"/>
<stop offset="0.67" stop-color="#CB81E2"/>
<stop offset="0.87" stop-color="#C273F6"/>
<stop offset="1" stop-color="#BF6EFD"/>
</linearGradient>
<linearGradient id="paint3_linear_636_977" x1="46.5594" y1="15.9591" x2="8.80633" y2="14.6321" gradientUnits="userSpaceOnUse">
<stop stop-color="#FFD473"/>
<stop offset="1" stop-color="#BF6EFD"/>
</linearGradient>
</defs>
</svg>
