<svg width="197" height="44" viewBox="0 0 197 44" fill="none" xmlns="http://www.w3.org/2000/svg">
<path d="M55.2873 15.9369C56.0783 14.5551 57.1582 13.4785 58.5272 12.707C59.8962 11.9355 61.4312 11.5498 63.1322 11.5498C65.1222 11.5498 66.8653 12.0586 68.3621 13.0756C69.8584 14.0932 70.9046 15.5004 71.5002 17.2977L67.3928 17.2977C66.9849 16.4501 66.4108 15.8144 65.6708 15.39C64.9307 14.9662 64.076 14.7543 63.1067 14.7543C62.0689 14.7543 61.1461 14.996 60.3384 15.4794C59.5303 15.9628 58.9009 16.6454 58.4503 17.5267C57.9992 18.4085 57.7744 19.4432 57.7744 20.6297C57.7744 21.8162 57.9997 22.8298 58.4503 23.7199C58.9009 24.61 59.5303 25.297 60.3384 25.7799C61.1461 26.2633 62.0689 26.505 63.1067 26.505C64.076 26.505 64.9307 26.2887 65.6708 25.8566C66.4108 25.424 66.9849 24.7844 67.3928 23.9362L71.5002 23.9362C70.9046 25.7506 69.8629 27.1622 68.3749 28.171C66.8864 29.1798 65.1388 29.6841 63.1322 29.6841C61.4312 29.6841 59.8962 29.2989 58.5272 28.5269C57.1577 27.7555 56.0778 26.6832 55.2873 25.3097C54.4962 23.9362 54.101 22.3767 54.101 20.6302C54.101 18.8836 54.4962 17.3197 55.2873 15.9374V15.9369Z" fill="white"/>
<path d="M77.1641 28.861C76.0753 28.2594 75.2206 27.4074 74.6001 26.3049C73.979 25.2029 73.669 23.9314 73.669 22.4901C73.669 21.0487 73.9878 19.7772 74.6255 18.6752C75.2633 17.5732 76.1346 16.7212 77.2405 16.1191C78.346 15.5176 79.5788 15.2163 80.9399 15.2163C82.301 15.2163 83.5333 15.5176 84.6392 16.1191C85.7447 16.7212 86.6165 17.5732 87.2542 18.6752C87.8919 19.7777 88.2108 21.0492 88.2108 22.4901C88.2108 23.9309 87.8831 25.2029 87.2283 26.3049C86.5734 27.4074 85.6889 28.2594 84.5751 28.861C83.4608 29.463 82.2153 29.7638 80.8375 29.7638C79.4597 29.7638 78.2519 29.463 77.1636 28.861H77.1641ZM82.662 26.1906C83.2316 25.8772 83.6866 25.4065 84.027 24.7791C84.3669 24.1521 84.5374 23.389 84.5374 22.4901C84.5374 21.1507 84.1842 20.121 83.4785 19.3998C82.7727 18.6791 81.9097 18.3188 80.8889 18.3188C79.8682 18.3188 79.0136 18.6791 78.3249 19.3998C77.6363 20.1205 77.2915 21.1507 77.2915 22.4901C77.2915 23.8294 77.627 24.8596 78.2994 25.5803C78.9709 26.301 79.8173 26.6613 80.838 26.6613C81.484 26.6613 82.0924 26.5046 82.662 26.1906Z" fill="white"/>
<path d="M93.1344 29.1403C92.216 28.7248 91.4887 28.1613 90.9528 27.4489C90.417 26.7365 90.1236 25.9485 90.0727 25.0837H93.6702C93.7378 25.6267 94.0057 26.0754 94.4739 26.4319C94.9417 26.7878 95.524 26.966 96.2215 26.966C96.9189 26.966 97.4332 26.8303 97.8162 26.5593C98.1988 26.2883 98.3903 25.9407 98.3903 25.5163C98.3903 25.0584 98.1561 24.7151 97.6889 24.4861C97.2211 24.2571 96.4772 24.0071 95.4564 23.7356C94.4014 23.4812 93.5384 23.2186 92.8669 22.9471C92.1949 22.6761 91.617 22.2606 91.1321 21.701C90.6472 21.1415 90.4048 20.3871 90.4048 19.4374C90.4048 18.6576 90.6301 17.9457 91.0807 17.3007C91.5313 16.6567 92.1778 16.1479 93.0197 15.7749C93.8617 15.4023 94.852 15.2153 95.9918 15.2153C97.6757 15.2153 99.0192 15.6348 100.023 16.4741C101.026 17.3134 101.579 18.4452 101.681 19.8695H98.2624C98.2115 19.31 97.9774 18.8647 97.5611 18.5341C97.1442 18.2035 96.5874 18.038 95.8899 18.038C95.2434 18.038 94.7458 18.1567 94.3975 18.394C94.0488 18.6318 93.8744 18.9623 93.8744 19.3856C93.8744 19.8607 94.1125 20.2211 94.589 20.4667C95.0651 20.7128 95.8047 20.9627 96.8087 21.2171C97.8295 21.4715 98.6714 21.7347 99.3346 22.0057C99.9977 22.2772 100.572 22.6966 101.057 23.2645C101.542 23.8328 101.792 24.5833 101.809 25.5154C101.809 26.3293 101.584 27.0583 101.134 27.7028C100.682 28.3473 100.036 28.8517 99.1945 29.216C98.3526 29.5802 97.3705 29.7628 96.2479 29.7628C95.1253 29.7628 94.0537 29.5548 93.1353 29.1398L93.1344 29.1403Z" fill="white"/>
<path d="M110.534 15.3418C111.555 15.3418 112.503 15.5879 113.379 16.0796C114.255 16.5717 114.922 17.2241 115.381 18.038C115.858 17.1733 116.529 16.5078 117.397 16.0415C118.264 15.5752 119.251 15.3423 120.356 15.3423C121.224 15.3423 122.019 15.5122 122.741 15.8511C123.464 16.1904 124.056 16.6567 124.514 17.25V15.5459L128.086 15.5459L128.086 29.6364L124.514 29.6364L124.514 21.8538C124.514 20.7518 124.23 19.9081 123.66 19.3231C123.09 18.7382 122.312 18.4457 121.325 18.4457C120.356 18.4457 119.591 18.7382 119.029 19.3231C118.468 19.9081 118.187 20.7518 118.187 21.8538L118.187 29.6364L114.616 29.6364L114.616 21.8538C114.616 20.7518 114.331 19.9081 113.761 19.3231C113.192 18.7382 112.422 18.4457 111.452 18.4457C110.483 18.4457 109.718 18.7382 109.156 19.3231C108.595 19.9081 108.314 20.7518 108.314 21.8538V29.6364L104.743 29.6364V21.3705C104.743 19.4716 105.275 17.9921 106.337 16.9321C107.401 15.8725 108.8 15.3423 110.534 15.3423L110.534 15.3418Z" fill="white"/>
<path d="M144.035 23.5584L133.703 23.5584C133.787 24.5759 134.145 25.3728 134.774 25.949C135.403 26.5256 136.177 26.8137 137.096 26.8137C138.423 26.8137 139.366 26.2458 139.928 25.1096L143.78 25.1096C143.372 26.4665 142.59 27.5812 141.433 28.4543C140.276 29.3278 138.857 29.7643 137.173 29.7643C135.812 29.7643 134.592 29.4635 133.512 28.8615C132.431 28.2599 131.589 27.4079 130.986 26.3054C130.382 25.2034 130.08 23.9319 130.08 22.4905C130.08 21.0492 130.377 19.7523 130.973 18.6498C131.568 17.5478 132.402 16.7002 133.473 16.1064C134.545 15.5132 135.778 15.2163 137.173 15.2163C138.568 15.2163 139.72 15.5049 140.783 16.081C141.846 16.6577 142.671 17.476 143.258 18.5356C143.845 19.5956 144.138 20.8119 144.138 22.1854C144.138 22.6942 144.104 23.1517 144.036 23.5589L144.035 23.5584ZM140.438 21.1678C140.42 20.2523 140.089 19.5189 139.442 18.9677C138.796 18.4169 138.005 18.141 137.07 18.141C136.185 18.141 135.441 18.4081 134.837 18.9423C134.233 19.4765 133.864 20.2181 133.728 21.1678L140.438 21.1678Z" fill="white"/>
<path d="M146.675 18.6453C147.245 17.5433 148.023 16.6957 149.009 16.1019C149.996 15.5087 151.092 15.2118 152.301 15.2118C153.219 15.2118 154.095 15.4115 154.928 15.8094C155.762 16.2079 156.425 16.7377 156.918 17.3993V10.71L160.541 10.71V29.5308H156.918V27.4454C156.476 28.1407 155.855 28.7003 155.056 29.1241C154.256 29.5479 153.329 29.7598 152.275 29.7598C151.084 29.7598 149.995 29.4546 149.009 28.8443C148.023 28.234 147.245 27.3736 146.675 26.2628C146.105 25.1525 145.82 23.8766 145.82 22.4353C145.82 20.9939 146.105 19.7478 146.675 18.6458V18.6453ZM156.434 20.2605C156.093 19.6419 155.634 19.1668 155.056 18.8362C154.477 18.5057 153.857 18.3402 153.194 18.3402C152.53 18.3402 151.918 18.5013 151.357 18.8235C150.796 19.1458 150.341 19.6165 149.992 20.2351C149.643 20.8543 149.469 21.5876 149.469 22.4353C149.469 23.2829 149.643 24.0251 149.992 24.6608C150.34 25.2965 150.799 25.7843 151.37 26.1232C151.939 26.4625 152.547 26.6319 153.194 26.6319C153.84 26.6319 154.478 26.4664 155.056 26.1359C155.634 25.8053 156.093 25.3307 156.434 24.7116C156.773 24.0929 156.944 23.3508 156.944 22.486C156.944 21.6213 156.773 20.8796 156.434 20.2605Z" fill="white"/>
<path d="M164.279 13.1659C163.863 12.7675 163.654 12.2719 163.654 11.6782C163.654 11.0844 163.863 10.5888 164.279 10.1904C164.696 9.79199 165.219 9.59277 165.849 9.59277C166.478 9.59277 167.001 9.79248 167.417 10.1904C167.834 10.5888 168.042 11.0849 168.042 11.6782C168.042 12.2714 167.834 12.768 167.417 13.1659C167.001 13.5644 166.477 13.7636 165.849 13.7636C165.22 13.7636 164.696 13.5644 164.279 13.1659ZM167.609 15.4422L167.609 29.5327L164.037 29.5327L164.037 15.4422L167.609 15.4422Z" fill="white"/>
<path d="M179.497 29.5308L174.701 23.5285L174.701 29.5308L171.129 29.5308L171.129 10.71L174.701 10.71L174.701 21.4177L179.446 15.4408L184.089 15.4408L177.864 22.5114L184.14 29.5313L179.497 29.5313V29.5308Z" fill="white"/>
<path d="M188.325 29.1403C187.406 28.7248 186.679 28.1613 186.143 27.4489C185.607 26.7365 185.314 25.9485 185.263 25.0837L188.861 25.0837C188.928 25.6267 189.196 26.0754 189.664 26.4319C190.132 26.7878 190.714 26.966 191.412 26.966C192.109 26.966 192.624 26.8303 193.007 26.5593C193.389 26.2883 193.581 25.9407 193.581 25.5163C193.581 25.0584 193.346 24.7151 192.879 24.4861C192.411 24.2571 191.668 24.0071 190.647 23.7356C189.592 23.4812 188.729 23.2186 188.057 22.9471C187.385 22.6761 186.807 22.2606 186.322 21.701C185.838 21.1415 185.595 20.3871 185.595 19.4374C185.595 18.6576 185.82 17.9457 186.271 17.3007C186.722 16.6567 187.368 16.1479 188.21 15.7749C189.052 15.4023 190.042 15.2153 191.182 15.2153C192.866 15.2153 194.209 15.6348 195.213 16.4741C196.217 17.3134 196.769 18.4452 196.871 19.8695L193.453 19.8695C193.402 19.31 193.168 18.8647 192.751 18.5341C192.335 18.2035 191.778 18.038 191.08 18.038C190.434 18.038 189.936 18.1567 189.588 18.394C189.239 18.6318 189.065 18.9623 189.065 19.3856C189.065 19.8607 189.303 20.2211 189.779 20.4667C190.255 20.7128 190.995 20.9627 191.999 21.2171C193.02 21.4715 193.862 21.7347 194.525 22.0057C195.188 22.2772 195.762 22.6966 196.247 23.2645C196.732 23.8328 196.983 24.5833 197 25.5154C197 26.3293 196.774 27.0583 196.324 27.7028C195.873 28.3473 195.227 28.8517 194.385 29.216C193.543 29.5802 192.561 29.7628 191.438 29.7628C190.316 29.7628 189.244 29.5548 188.326 29.1398L188.325 29.1403Z" fill="white"/>
<path d="M21.4867 43.9998C18.5921 43.9998 15.7829 43.4341 13.1366 42.3184C10.5821 41.2411 8.28856 39.6997 6.31946 37.7367C4.35037 35.7737 2.80427 33.4873 1.72361 30.9406C0.604899 28.304 0.0374903 25.5054 0.036999 22.6212L0.000399044 15.0226C0.000396672 12.9954 0.398993 11.028 1.18546 9.17446C1.9446 7.3851 3.03062 5.77909 4.41376 4.40023C5.7969 3.02136 7.40837 1.93869 9.2028 1.1819C11.0626 0.397868 13.0361 0.000503514 15.0696 0.000505891C17.1031 0.000508267 19.0765 0.397878 20.9359 1.18191C22.7308 1.93871 24.3418 3.02138 25.7249 4.40025C27.1081 5.77912 28.1941 7.38561 28.9532 9.1745C29.7397 11.0281 30.1383 12.9959 30.1383 15.0226L30.1383 22.6159C30.1383 27.3731 26.2562 31.2432 21.4843 31.2432C16.7123 31.2432 12.8302 27.3731 12.8302 22.6159L17.709 22.6159C17.709 24.6912 19.4025 26.3795 21.4843 26.3795C23.5661 26.3795 25.2595 24.6913 25.2595 22.6159L25.2595 15.0226C25.2595 9.42108 20.688 4.86376 15.0691 4.86375C9.45016 4.86375 4.88262 9.41765 4.87872 15.0158L4.91532 22.6154C4.91533 27.0278 6.63902 31.1765 9.76878 34.2966C12.8985 37.4167 17.0602 39.1351 21.4862 39.1351C25.9123 39.1351 30.0739 37.4167 33.2037 34.2967C36.3334 31.1766 38.0571 27.0278 38.0571 22.6154L42.9359 22.6154C42.9359 25.5011 42.3685 28.3016 41.2493 30.9397C40.1687 33.4864 38.6226 35.7728 36.6535 37.7358C34.6844 39.6988 32.3909 41.2401 29.8363 42.3174C27.1905 43.4332 24.3808 43.9988 21.4862 43.9988L21.4867 43.9998Z" fill="url(#paint0_linear_636_788)"/>
<path d="M38.0575 0.000517764L38.0575 3.95668C36.7822 2.78793 35.3308 1.85555 33.7334 1.18192C31.8741 0.397878 29.9006 0.000508243 27.8672 0.00050587C25.8337 0.000503496 23.8602 0.397869 22.0009 1.1819C20.206 1.9387 18.595 3.02137 17.2118 4.40023C15.8287 5.7791 14.7427 7.3856 13.9835 9.17448C13.1971 11.028 12.7985 12.9959 12.7985 15.0226L12.7985 22.6159C12.7985 27.3731 16.6806 31.2432 21.4525 31.2432C21.4579 31.2432 21.4633 31.2432 21.4686 31.2432L21.4686 26.3795C21.4633 26.3795 21.4579 26.3795 21.4525 26.3795C19.3707 26.3795 17.6773 24.6913 17.6773 22.6159L17.6773 15.0226C17.6773 9.42107 22.2487 4.86375 27.8676 4.86376C33.4866 4.86377 38.058 9.4211 38.058 15.0227L38.058 22.6159L42.9369 22.616L42.9368 0.000523459L38.058 0.000517765L38.0575 0.000517764Z" fill="url(#paint1_linear_636_788)"/>
<g style="mix-blend-mode:color-burn" opacity="0.3">
<path d="M21.4867 43.9998C18.5921 43.9998 15.7829 43.4341 13.1366 42.3184C10.5821 41.2411 8.28856 39.6997 6.31946 37.7367C4.35037 35.7737 2.80427 33.4873 1.72361 30.9406C0.604899 28.304 0.0374903 25.5054 0.036999 22.6212L0.000399044 15.0226C0.000396672 12.9954 0.398993 11.028 1.18546 9.17446C1.9446 7.3851 3.03062 5.77909 4.41376 4.40023C5.7969 3.02136 7.40837 1.93869 9.2028 1.1819C11.0626 0.397868 13.0361 0.000503514 15.0696 0.000505891C17.1031 0.000508267 19.0765 0.397878 20.9359 1.18191C22.7308 1.93871 24.3418 3.02138 25.7249 4.40025C27.1081 5.77912 28.1941 7.38561 28.9532 9.1745C29.7397 11.0281 30.1383 12.9959 30.1383 15.0226L30.1383 22.6159C30.1383 27.3731 26.2562 31.2432 21.4843 31.2432C16.7123 31.2432 12.8302 27.3731 12.8302 22.6159L17.709 22.6159C17.709 24.6912 19.4025 26.3795 21.4843 26.3795C23.5661 26.3795 25.2595 24.6913 25.2595 22.6159L25.2595 15.0226C25.2595 9.42108 20.688 4.86376 15.0691 4.86375C9.45016 4.86375 4.88262 9.41765 4.87872 15.0158L4.91532 22.6154C4.91533 27.0278 6.63902 31.1765 9.76878 34.2966C12.8985 37.4167 17.0602 39.1351 21.4862 39.1351C25.9123 39.1351 30.0739 37.4167 33.2037 34.2967C36.3334 31.1766 38.0571 27.0278 38.0571 22.6154L42.9359 22.6154C42.9359 25.5011 42.3685 28.3016 41.2493 30.9397C40.1687 33.4864 38.6226 35.7728 36.6535 37.7358C34.6844 39.6988 32.3909 41.2401 29.8363 42.3174C27.1905 43.4332 24.3808 43.9988 21.4862 43.9988L21.4867 43.9998Z" fill="url(#paint2_linear_636_788)"/>
<path d="M38.0575 0.000517764L38.0575 3.95668C36.7822 2.78793 35.3308 1.85555 33.7334 1.18192C31.8741 0.397878 29.9006 0.000508243 27.8672 0.00050587C25.8337 0.000503496 23.8602 0.397869 22.0009 1.1819C20.206 1.9387 18.595 3.02137 17.2118 4.40023C15.8287 5.7791 14.7427 7.3856 13.9835 9.17448C13.1971 11.028 12.7985 12.9959 12.7985 15.0226L12.7985 22.6159C12.7985 27.3731 16.6806 31.2432 21.4525 31.2432C21.4579 31.2432 21.4633 31.2432 21.4686 31.2432L21.4686 26.3795C21.4633 26.3795 21.4579 26.3795 21.4525 26.3795C19.3707 26.3795 17.6773 24.6913 17.6773 22.6159L17.6773 15.0226C17.6773 9.42107 22.2487 4.86375 27.8676 4.86376C33.4866 4.86377 38.058 9.4211 38.058 15.0227L38.058 22.6159L42.9369 22.616L42.9368 0.000523459L38.058 0.000517765L38.0575 0.000517764Z" fill="url(#paint3_linear_636_788)"/>
</g>
<defs>
<linearGradient id="paint0_linear_636_788" x1="-1.36273" y1="21.9374" x2="48.3143" y2="22.0969" gradientUnits="userSpaceOnUse">
<stop stop-color="#FFD473"/>
<stop offset="0.19" stop-color="#EDB897"/>
<stop offset="0.44" stop-color="#D998C3"/>
<stop offset="0.67" stop-color="#CB81E2"/>
<stop offset="0.87" stop-color="#C273F6"/>
<stop offset="1" stop-color="#BF6EFD"/>
</linearGradient>
<linearGradient id="paint1_linear_636_788" x1="42.6612" y1="15.9594" x2="8.06233" y2="14.8451" gradientUnits="userSpaceOnUse">
<stop stop-color="#FFD473"/>
<stop offset="1" stop-color="#BF6EFD"/>
</linearGradient>
<linearGradient id="paint2_linear_636_788" x1="-1.36273" y1="21.9374" x2="48.3143" y2="22.0969" gradientUnits="userSpaceOnUse">
<stop stop-color="#FFD473"/>
<stop offset="0.19" stop-color="#EDB897"/>
<stop offset="0.44" stop-color="#D998C3"/>
<stop offset="0.67" stop-color="#CB81E2"/>
<stop offset="0.87" stop-color="#C273F6"/>
<stop offset="1" stop-color="#BF6EFD"/>
</linearGradient>
<linearGradient id="paint3_linear_636_788" x1="42.6612" y1="15.9594" x2="8.06233" y2="14.8451" gradientUnits="userSpaceOnUse">
<stop stop-color="#FFD473"/>
<stop offset="1" stop-color="#BF6EFD"/>
</linearGradient>
</defs>
</svg>
