<svg width="466" height="382" viewBox="0 0 466 382" fill="none" xmlns="http://www.w3.org/2000/svg">
<path d="M230.895 272.857C230.895 334.956 187.719 382 122.018 382C56.3158 382 0 329.31 0 235.222C0 118.552 88.2281 18.8177 202.737 0V69.6256C137.035 82.798 88.2281 129.842 88.2281 184.414C99.4912 176.887 114.509 171.241 138.912 171.241C187.719 171.241 230.895 206.995 230.895 272.857ZM535 272.857C535 334.956 489.947 382 424.246 382C360.421 382 302.228 329.31 302.228 235.222C302.228 118.552 390.456 18.8177 506.842 0V69.6256C441.14 82.798 392.333 129.842 392.333 182.532C403.597 175.005 420.491 171.241 443.018 171.241C491.825 171.241 535 206.995 535 272.857Z" fill="url(#paint0_linear_636_549)"/>
<defs>
<linearGradient id="paint0_linear_636_549" x1="420.665" y1="-14.9804" x2="-66.7279" y2="188.32" gradientUnits="userSpaceOnUse">
<stop stop-color="#FFD473"/>
<stop offset="1" stop-color="#BF6EFD"/>
</linearGradient>
</defs>
</svg>
